<mxfile host="Electron" modified="2023-09-30T15:25:09.504Z" agent="Mozilla/5.0 (Macintosh; Intel Mac OS X 10_15_7) AppleWebKit/537.36 (KHTML, like Gecko) draw.io/21.6.8 Chrome/114.0.5735.289 Electron/25.5.0 Safari/537.36" etag="waDw9RYQ0DivJ8tBI8q1" version="21.6.8" type="device">
  <diagram name="Angular" id="7UXXElORAuR_nMMiRXil">
    <mxGraphModel dx="2684" dy="1372" grid="1" gridSize="10" guides="1" tooltips="1" connect="1" arrows="1" fold="1" page="1" pageScale="1" pageWidth="827" pageHeight="1169" math="0" shadow="0">
      <root>
        <mxCell id="0" />
        <mxCell id="1" parent="0" />
        <mxCell id="HYK-ofJyOZwfCrTHnTgP-1" value="Angular" style="rounded=0;whiteSpace=wrap;html=1;" vertex="1" parent="1">
          <mxGeometry x="190" y="360" width="120" height="60" as="geometry" />
        </mxCell>
        <mxCell id="HYK-ofJyOZwfCrTHnTgP-2" value="Components" style="rounded=1;whiteSpace=wrap;html=1;" vertex="1" parent="1">
          <mxGeometry x="10" y="590" width="120" height="60" as="geometry" />
        </mxCell>
        <mxCell id="HYK-ofJyOZwfCrTHnTgP-3" value="Directives&lt;br&gt;" style="rounded=1;whiteSpace=wrap;html=1;" vertex="1" parent="1">
          <mxGeometry x="180" y="590" width="120" height="60" as="geometry" />
        </mxCell>
        <mxCell id="HYK-ofJyOZwfCrTHnTgP-4" value="pipes" style="rounded=1;whiteSpace=wrap;html=1;" vertex="1" parent="1">
          <mxGeometry x="353.5" y="590" width="120" height="60" as="geometry" />
        </mxCell>
        <mxCell id="HYK-ofJyOZwfCrTHnTgP-5" value="Services" style="rounded=1;whiteSpace=wrap;html=1;" vertex="1" parent="1">
          <mxGeometry x="540" y="590" width="120" height="60" as="geometry" />
        </mxCell>
        <mxCell id="HYK-ofJyOZwfCrTHnTgP-6" value="" style="whiteSpace=wrap;html=1;aspect=fixed;fillColor=#d5e8d4;strokeColor=#82b366;" vertex="1" parent="1">
          <mxGeometry x="-610" y="690" width="1490" height="1490" as="geometry" />
        </mxCell>
        <mxCell id="HYK-ofJyOZwfCrTHnTgP-7" value="Root Injector" style="rounded=0;whiteSpace=wrap;html=1;" vertex="1" parent="1">
          <mxGeometry x="354" y="750" width="120" height="60" as="geometry" />
        </mxCell>
        <mxCell id="HYK-ofJyOZwfCrTHnTgP-8" value="Dependency Provider" style="rounded=0;whiteSpace=wrap;html=1;" vertex="1" parent="1">
          <mxGeometry x="90" y="850" width="120" height="60" as="geometry" />
        </mxCell>
        <mxCell id="HYK-ofJyOZwfCrTHnTgP-9" value="Dependency Consumer" style="rounded=0;whiteSpace=wrap;html=1;" vertex="1" parent="1">
          <mxGeometry x="90" y="970" width="120" height="60" as="geometry" />
        </mxCell>
        <mxCell id="HYK-ofJyOZwfCrTHnTgP-10" value="Injector" style="rounded=0;whiteSpace=wrap;html=1;" vertex="1" parent="1">
          <mxGeometry x="330" y="910" width="120" height="60" as="geometry" />
        </mxCell>
        <mxCell id="HYK-ofJyOZwfCrTHnTgP-11" value="useClass&lt;br&gt;[{&lt;span style=&quot;color: rgb(255, 255, 255); line-height: 2.4rem; font-family: &amp;quot;Roboto Mono&amp;quot;, monospace; font-size: 14.4px; text-align: start; background-color: rgb(51, 51, 51);&quot; class=&quot;pln&quot;&gt; provide&lt;/span&gt;&lt;span style=&quot;color: rgb(255, 215, 121); line-height: 2.4rem; font-family: &amp;quot;Roboto Mono&amp;quot;, monospace; font-size: 14.4px; text-align: start; background-color: rgb(51, 51, 51);&quot; class=&quot;pun&quot;&gt;:&lt;/span&gt;&lt;span style=&quot;color: rgb(255, 255, 255); line-height: 2.4rem; font-family: &amp;quot;Roboto Mono&amp;quot;, monospace; font-size: 14.4px; text-align: start; background-color: rgb(51, 51, 51);&quot; class=&quot;pln&quot;&gt; &lt;/span&gt;&lt;span style=&quot;color: rgb(255, 176, 176); line-height: 2.4rem; font-family: &amp;quot;Roboto Mono&amp;quot;, monospace; font-size: 14.4px; text-align: start; background-color: rgb(51, 51, 51);&quot; class=&quot;typ&quot;&gt;Logger&lt;/span&gt;&lt;span style=&quot;color: rgb(255, 215, 121); line-height: 2.4rem; font-family: &amp;quot;Roboto Mono&amp;quot;, monospace; font-size: 14.4px; text-align: start; background-color: rgb(51, 51, 51);&quot; class=&quot;pun&quot;&gt;,&lt;/span&gt;&lt;span style=&quot;color: rgb(255, 255, 255); line-height: 2.4rem; font-family: &amp;quot;Roboto Mono&amp;quot;, monospace; font-size: 14.4px; text-align: start; background-color: rgb(51, 51, 51);&quot; class=&quot;pln&quot;&gt; useClass&lt;/span&gt;&lt;span style=&quot;color: rgb(255, 215, 121); line-height: 2.4rem; font-family: &amp;quot;Roboto Mono&amp;quot;, monospace; font-size: 14.4px; text-align: start; background-color: rgb(51, 51, 51);&quot; class=&quot;pun&quot;&gt;:&lt;/span&gt;&lt;span style=&quot;color: rgb(255, 255, 255); line-height: 2.4rem; font-family: &amp;quot;Roboto Mono&amp;quot;, monospace; font-size: 14.4px; text-align: start; background-color: rgb(51, 51, 51);&quot; class=&quot;pln&quot;&gt; &lt;/span&gt;&lt;span style=&quot;color: rgb(255, 176, 176); line-height: 2.4rem; font-family: &amp;quot;Roboto Mono&amp;quot;, monospace; font-size: 14.4px; text-align: start; background-color: rgb(51, 51, 51);&quot; class=&quot;typ&quot;&gt;Logger&lt;/span&gt;&lt;span style=&quot;color: rgb(255, 255, 255); line-height: 2.4rem; font-family: &amp;quot;Roboto Mono&amp;quot;, monospace; font-size: 14.4px; text-align: start; background-color: rgb(51, 51, 51);&quot; class=&quot;pln&quot;&gt; &lt;/span&gt;&lt;span style=&quot;color: rgb(255, 215, 121); line-height: 2.4rem; font-family: &amp;quot;Roboto Mono&amp;quot;, monospace; font-size: 14.4px; text-align: start; background-color: rgb(51, 51, 51);&quot; class=&quot;pun&quot;&gt;}]&lt;/span&gt;" style="rounded=0;whiteSpace=wrap;html=1;" vertex="1" parent="1">
          <mxGeometry x="-450" y="750" width="360" height="60" as="geometry" />
        </mxCell>
        <mxCell id="HYK-ofJyOZwfCrTHnTgP-12" value="[&lt;span style=&quot;color: rgb(255, 255, 255); line-height: 2.4rem; font-family: &amp;quot;Roboto Mono&amp;quot;, monospace; font-size: 14.4px; text-align: start; background-color: rgb(51, 51, 51);&quot; class=&quot;pln&quot;&gt; &lt;/span&gt;&lt;span style=&quot;color: rgb(255, 176, 176); line-height: 2.4rem; font-family: &amp;quot;Roboto Mono&amp;quot;, monospace; font-size: 14.4px; text-align: start; background-color: rgb(51, 51, 51);&quot; class=&quot;typ&quot;&gt;NewLogger&lt;/span&gt;&lt;span style=&quot;color: rgb(255, 215, 121); line-height: 2.4rem; font-family: &amp;quot;Roboto Mono&amp;quot;, monospace; font-size: 14.4px; text-align: start; background-color: rgb(51, 51, 51);&quot; class=&quot;pun&quot;&gt;,&lt;/span&gt;&lt;span style=&quot;color: rgb(255, 255, 255); line-height: 2.4rem; font-family: &amp;quot;Roboto Mono&amp;quot;, monospace; font-size: 14.4px; text-align: start; background-color: rgb(51, 51, 51);&quot; class=&quot;pln&quot;&gt;&lt;br/&gt;  &lt;/span&gt;&lt;span style=&quot;color: rgba(255, 255, 255, 0.7); line-height: 2.4rem; font-family: &amp;quot;Roboto Mono&amp;quot;, monospace; font-size: 14.4px; text-align: start; background-color: rgb(51, 51, 51);&quot; class=&quot;com&quot;&gt;// Alias OldLogger w/ reference to NewLogger&lt;/span&gt;&lt;span style=&quot;color: rgb(255, 255, 255); line-height: 2.4rem; font-family: &amp;quot;Roboto Mono&amp;quot;, monospace; font-size: 14.4px; text-align: start; background-color: rgb(51, 51, 51);&quot; class=&quot;pln&quot;&gt;&lt;br/&gt;  &lt;/span&gt;&lt;span style=&quot;color: rgb(255, 215, 121); line-height: 2.4rem; font-family: &amp;quot;Roboto Mono&amp;quot;, monospace; font-size: 14.4px; text-align: start; background-color: rgb(51, 51, 51);&quot; class=&quot;pun&quot;&gt;{&lt;/span&gt;&lt;span style=&quot;color: rgb(255, 255, 255); line-height: 2.4rem; font-family: &amp;quot;Roboto Mono&amp;quot;, monospace; font-size: 14.4px; text-align: start; background-color: rgb(51, 51, 51);&quot; class=&quot;pln&quot;&gt; provide&lt;/span&gt;&lt;span style=&quot;color: rgb(255, 215, 121); line-height: 2.4rem; font-family: &amp;quot;Roboto Mono&amp;quot;, monospace; font-size: 14.4px; text-align: start; background-color: rgb(51, 51, 51);&quot; class=&quot;pun&quot;&gt;:&lt;/span&gt;&lt;span style=&quot;color: rgb(255, 255, 255); line-height: 2.4rem; font-family: &amp;quot;Roboto Mono&amp;quot;, monospace; font-size: 14.4px; text-align: start; background-color: rgb(51, 51, 51);&quot; class=&quot;pln&quot;&gt; &lt;/span&gt;&lt;span style=&quot;color: rgb(255, 176, 176); line-height: 2.4rem; font-family: &amp;quot;Roboto Mono&amp;quot;, monospace; font-size: 14.4px; text-align: start; background-color: rgb(51, 51, 51);&quot; class=&quot;typ&quot;&gt;OldLogger&lt;/span&gt;&lt;span style=&quot;color: rgb(255, 215, 121); line-height: 2.4rem; font-family: &amp;quot;Roboto Mono&amp;quot;, monospace; font-size: 14.4px; text-align: start; background-color: rgb(51, 51, 51);&quot; class=&quot;pun&quot;&gt;,&lt;/span&gt;&lt;span style=&quot;color: rgb(255, 255, 255); line-height: 2.4rem; font-family: &amp;quot;Roboto Mono&amp;quot;, monospace; font-size: 14.4px; text-align: start; background-color: rgb(51, 51, 51);&quot; class=&quot;pln&quot;&gt; useExisting&lt;/span&gt;&lt;span style=&quot;color: rgb(255, 215, 121); line-height: 2.4rem; font-family: &amp;quot;Roboto Mono&amp;quot;, monospace; font-size: 14.4px; text-align: start; background-color: rgb(51, 51, 51);&quot; class=&quot;pun&quot;&gt;:&lt;/span&gt;&lt;span style=&quot;color: rgb(255, 255, 255); line-height: 2.4rem; font-family: &amp;quot;Roboto Mono&amp;quot;, monospace; font-size: 14.4px; text-align: start; background-color: rgb(51, 51, 51);&quot; class=&quot;pln&quot;&gt; &lt;/span&gt;&lt;span style=&quot;color: rgb(255, 176, 176); line-height: 2.4rem; font-family: &amp;quot;Roboto Mono&amp;quot;, monospace; font-size: 14.4px; text-align: start; background-color: rgb(51, 51, 51);&quot; class=&quot;typ&quot;&gt;NewLogger&lt;/span&gt;&lt;span style=&quot;color: rgb(255, 215, 121); line-height: 2.4rem; font-family: &amp;quot;Roboto Mono&amp;quot;, monospace; font-size: 14.4px; text-align: start; background-color: rgb(51, 51, 51);&quot; class=&quot;pun&quot;&gt;}]&lt;/span&gt;" style="rounded=0;whiteSpace=wrap;html=1;" vertex="1" parent="1">
          <mxGeometry x="-580" y="830" width="590" height="130" as="geometry" />
        </mxCell>
      </root>
    </mxGraphModel>
  </diagram>
</mxfile>
